<?xml version="1.0" encoding="UTF-8" standalone="no"?>
<svg
   xmlns:bx="https://boxy-svg.com"
   xmlns:dc="http://purl.org/dc/elements/1.1/"
   xmlns:cc="http://creativecommons.org/ns#"
   xmlns:rdf="http://www.w3.org/1999/02/22-rdf-syntax-ns#"
   xmlns:svg="http://www.w3.org/2000/svg"
   xmlns="http://www.w3.org/2000/svg"
   xmlns:sodipodi="http://sodipodi.sourceforge.net/DTD/sodipodi-0.dtd"
   xmlns:inkscape="http://www.inkscape.org/namespaces/inkscape"
   viewBox="0 0 200 200"
   width="200px"
   height="200px"
   preserveAspectRatio="xMidYMid slice"
   version="1.1"
   id="svg88"
   sodipodi:docname="brewio.svg"
   inkscape:version="0.92.3 (2405546, 2018-03-11)">
  <metadata
     id="metadata92">
    <rdf:RDF>
      <cc:Work
         rdf:about="">
        <dc:format>image/svg+xml</dc:format>
        <dc:type
           rdf:resource="http://purl.org/dc/dcmitype/StillImage" />
      </cc:Work>
    </rdf:RDF>
  </metadata>
  <sodipodi:namedview
     pagecolor="#ffffff"
     bordercolor="#666666"
     borderopacity="1"
     objecttolerance="10"
     gridtolerance="10"
     guidetolerance="10"
     inkscape:pageopacity="0"
     inkscape:pageshadow="2"
     inkscape:window-width="1657"
     inkscape:window-height="891"
     id="namedview90"
     showgrid="false"
     inkscape:zoom="2.36"
     inkscape:cx="82.255405"
     inkscape:cy="71.184086"
     inkscape:window-x="106"
     inkscape:window-y="74"
     inkscape:window-maximized="0"
     inkscape:current-layer="svg88" />
  <defs
     id="defs2">
    <bx:grid
       x="0"
       y="0"
       width="20"
       height="20" />
  </defs>
  <polygon
     style="fill: rgb(216, 216, 216); stroke: rgb(0, 0, 0);"
     points="97.808 111.744"
     id="polygon4" />
  <g
     transform="matrix(1.206887, 0, 0, 1.206887, 92.677818, -28.010881)"
     style=""
     id="g74">
    <path
       d="M 80 106.067 C 80 146.897 46.897 180 6.067 180 C -23.492 180 -49.001 162.649 -60.831 137.578 C -65.345 128.019 -67.866 117.339 -67.866 106.067 C -67.866 65.237 -34.763 32.134 6.067 32.134 C 36.865 32.134 63.264 50.967 74.377 77.742 C 78.001 86.466 80 96.034 80 106.067 Z M 80 106.067"
       fill="#65b2ff"
       style="fill:#cdaf82;fill-opacity:1"
       id="path6" />
    <path
       d="M 71.123 141.214 L 71.123 141.217 C 58.62 164.312 34.173 180 6.067 180 C -22.039 180 -46.485 164.312 -58.989 141.217 L -58.989 141.214 Z M 71.123 141.214"
       fill="#1076e5"
       style="fill:#6c5021;fill-opacity:1"
       id="path8" />
    <g
       fill="#fff"
       transform="matrix(0.2888, 0, 0, 0.2888, -67.865852, 32.134075)"
       style=""
       id="g42">
      <path
         d="m367.328125 236.359375v251h-1.628906c-9.359375 4.460937-19.050781 8.351563-29 11.660156-9.390625 3.109375-19.007813 5.699219-28.847657 7.730469-16.742187 3.441406-34.089843 5.25-51.851562 5.25-1.109375 0-2.230469-.011719-3.339844-.019531-29.480468-.378907-57.769531-5.742188-84.039062-15.289063-10.550782-3.832031-20.78125-8.332031-30.632813-13.460937v-246.871094c0-11.828125 9.589844-21.4375 21.433594-21.4375h186.476563c11.832031 0 21.429687 9.609375 21.429687 21.4375zm0 0"
         id="path10" />
      <g
         transform="matrix(2.869037, 0, 0, 2.869037, 655.134759, 398.881327)"
         id="g12" />
      <g
         transform="matrix(2.869037, 0, 0, 2.869037, 655.134759, 398.881327)"
         id="g14" />
      <g
         transform="matrix(2.869037, 0, 0, 2.869037, 655.134759, 398.881327)"
         id="g16" />
      <g
         transform="matrix(2.869037, 0, 0, 2.869037, 655.134759, 398.881327)"
         id="g18" />
      <g
         transform="matrix(2.869037, 0, 0, 2.869037, 655.134759, 398.881327)"
         id="g20" />
      <g
         transform="matrix(2.869037, 0, 0, 2.869037, 655.134759, 398.881327)"
         id="g22" />
      <g
         transform="matrix(2.869037, 0, 0, 2.869037, 655.134759, 398.881327)"
         id="g24" />
      <g
         transform="matrix(2.869037, 0, 0, 2.869037, 655.134759, 398.881327)"
         id="g26" />
      <g
         transform="matrix(2.869037, 0, 0, 2.869037, 655.134759, 398.881327)"
         id="g28" />
      <g
         transform="matrix(2.869037, 0, 0, 2.869037, 655.134759, 398.881327)"
         id="g30" />
      <g
         transform="matrix(2.869037, 0, 0, 2.869037, 655.134759, 398.881327)"
         id="g32" />
      <g
         transform="matrix(2.869037, 0, 0, 2.869037, 655.134759, 398.881327)"
         id="g34" />
      <g
         transform="matrix(2.869037, 0, 0, 2.869037, 655.134759, 398.881327)"
         id="g36" />
      <g
         transform="matrix(2.869037, 0, 0, 2.869037, 655.134759, 398.881327)"
         id="g38" />
      <g
         transform="matrix(2.869037, 0, 0, 2.869037, 655.134759, 398.881327)"
         id="g40" />
    </g>
    <path
       d="M 37.748 172.884 C 35.045 174.172 32.246 175.296 29.373 176.251 C 26.661 177.149 23.883 177.897 21.042 178.484 L 21.042 172.884 Z M 37.748 172.884"
       fill="#d0f6ff"
       style=""
       id="path44" />
    <path
       d="M 65.262 133.936 L 65.262 150.366 C 62.42 154.161 59.218 157.673 55.711 160.856 L 55.711 133.936 C 55.711 129.232 52.207 125.333 47.665 124.717 C 47.256 124.66 46.837 124.631 46.406 124.631 L 21.042 124.631 L 21.042 115.081 L 46.406 115.081 C 46.831 115.081 47.251 115.096 47.665 115.124 C 57.477 115.771 65.262 123.963 65.262 133.936 Z M 65.262 133.936"
       fill="#d0f6ff"
       style=""
       id="path46" />
    <path
       d="M 37.748 172.884 C 35.045 174.172 32.246 175.296 29.373 176.251 C 26.661 177.149 23.883 177.897 21.042 178.484 L 21.042 172.884 Z M 37.748 172.884"
       fill="#8fc9f7"
       style=""
       id="path48" />
    <path
       d="M 47.665 115.122 L 47.665 124.718 C 47.255 124.661 46.835 124.631 46.407 124.631 L 21.043 124.631 L 21.043 115.081 L 46.407 115.081 C 46.832 115.082 47.251 115.094 47.665 115.122 Z M 47.665 115.122"
       fill="#8fc9f7"
       style=""
       id="path50" />
    <path
       d="M 38.219 100.395 L 38.219 172.884 L 37.748 172.884 C 35.045 174.172 32.246 175.296 29.373 176.251 C 26.661 177.149 23.883 177.897 21.042 178.484 C 16.206 179.477 11.197 180 6.067 180 C 5.746 180 5.423 179.997 5.103 179.994 L 5.103 94.203 L 32.03 94.203 C 35.447 94.203 38.219 96.979 38.219 100.395 Z M 38.219 100.395"
       fill="#d0f6ff"
       style=""
       id="path52" />
    <path
       d="M 29.373 113.278 L 29.373 176.251 C 26.661 177.149 23.883 177.897 21.042 178.484 C 16.206 179.477 11.197 180 6.067 180 C 5.746 180 5.423 179.997 5.103 179.994 C -3.411 179.885 -11.582 178.336 -19.168 175.579 L -19.168 113.278 Z M 29.373 113.278"
       fill="#ffd112"
       style=""
       id="path54" />
    <path
       d="M 29.373 113.278 L 29.373 176.251 C 26.661 177.149 23.883 177.897 21.042 178.484 C 16.206 179.477 11.197 180 6.067 180 C 5.746 180 5.423 179.997 5.103 179.994 L 5.103 113.278 Z M 29.373 113.278"
       fill="#ff9f00"
       style=""
       id="path56" />
    <path
       d="M -8.416 139.439 C -8.416 140.552 -9.317 141.453 -10.43 141.453 C -11.541 141.453 -12.442 140.552 -12.442 139.439 C -12.442 138.328 -11.541 137.427 -10.43 137.427 C -9.317 137.427 -8.416 138.328 -8.416 139.439 Z M -8.416 139.439"
       fill="#ffe955"
       style=""
       id="path58" />
    <path
       d="M 17.238 157.348 C 17.238 158.461 16.337 159.361 15.225 159.361 C 14.113 159.361 13.212 158.461 13.212 157.348 C 13.212 156.237 14.113 155.336 15.225 155.336 C 16.337 155.336 17.238 156.237 17.238 157.348 Z M 17.238 157.348"
       fill="#ffe955"
       style=""
       id="path60" />
    <path
       d="M -8.416 169.603 C -8.416 170.714 -9.317 171.615 -10.43 171.615 C -11.541 171.615 -12.442 170.714 -12.442 169.603 C -12.442 168.492 -11.541 167.59 -10.43 167.59 C -9.317 167.59 -8.416 168.492 -8.416 169.603 Z M -8.416 169.603"
       fill="#ffe955"
       style=""
       id="path62" />
    <path
       d="M 19.25 137.369 C 19.25 138.481 18.35 139.382 17.238 139.382 C 16.126 139.382 15.225 138.481 15.225 137.369 C 15.225 136.258 16.126 135.356 17.238 135.356 C 18.35 135.356 19.25 136.258 19.25 137.369 Z M 19.25 137.369"
       fill="#ffe955"
       style=""
       id="path64" />
    <path
       d="M 23.276 172.146 C 23.276 173.258 22.375 174.158 21.264 174.158 C 20.153 174.158 19.251 173.258 19.251 172.146 C 19.251 171.035 20.153 170.133 21.264 170.133 C 22.375 170.133 23.276 171.035 23.276 172.146 Z M 23.276 172.146"
       fill="#ffe955"
       style=""
       id="path66" />
    <path
       d="M -0.104 155.256 C -0.104 156.367 -1.005 157.268 -2.118 157.268 C -3.229 157.268 -4.13 156.367 -4.13 155.256 C -4.13 154.143 -3.229 153.243 -2.118 153.243 C -1.005 153.243 -0.104 154.143 -0.104 155.256 Z M -0.104 155.256"
       fill="#ffe955"
       style=""
       id="path68" />
    <path
       d="M -19.169 113.278 L 5.103 113.278 L 5.103 127.873 L -19.169 127.873 Z M -19.169 113.278"
       fill="#ffe955"
       style=""
       id="path70" />
    <path
       d="M 5.103 113.278 L 29.373 113.278 L 29.373 127.873 L 5.103 127.873 Z M 5.103 113.278"
       fill="#ffd112"
       style=""
       id="path72" />
  </g>
  <g
     id="g76" />
  <rect
     x="94.406"
     y="20"
     width="5.594"
     height="167.889"
     style="fill:#6c5021;fill-opacity:1"
     id="rect78" />
  <rect
     x="130.938"
     y="40"
     width="49.062"
     height="40"
     style="fill: rgb(196, 36, 36);"
     id="rect80" />
  <rect
     x="94.739"
     y="26.455"
     width="55.077"
     height="43.953"
     style="fill: rgb(255, 0, 0);"
     id="rect82" />
  <polygon
     style="fill: rgb(147, 22, 22);"
     points="149.823 70.408 130.885 79.988 130.956 70.414"
     id="polygon84" />
  <circle
     style="fill: rgb(255, 196, 0);"
     cx="97.203"
     cy="12.402"
     r="7.598"
     id="circle86" />
</svg>
